<svg xmlns="http://www.w3.org/2000/svg" viewBox="0 0 200.69 271.27"><defs><style>.cls-1{opacity:0.3;}.cls-2,.cls-3,.cls-4,.cls-5,.cls-6{fill:#fddabd;}.cls-3{opacity:0.15;}.cls-4{opacity:0.8;}.cls-5{opacity:0.3;}.cls-6{opacity:0.6;}</style></defs><title>cont-bg01.png</title><g id="レイヤー_2" data-name="レイヤー 2"><g id="レイヤー_1-2" data-name="レイヤー 1" class="cls-1"><polygon class="cls-2" points="97.39 38.62 97.39 0 77.92 40.69 77.92 40.69 97.39 38.62 97.39 38.62"/><polygon class="cls-3" points="133.79 32.76 133.79 32.76 97.39 0 97.39 38.62 133.79 32.76"/><polygon class="cls-4" points="77.92 40.69 77.92 79.31 77.92 79.31 97.39 38.62 77.92 40.69"/><polygon class="cls-5" points="133.79 32.76 97.39 38.62 97.39 38.62 133.79 71.38 133.79 71.38 133.79 32.76"/><polygon class="cls-6" points="97.39 38.62 77.92 79.31 113.8 93.28 97.39 38.62 97.39 38.62"/><polygon class="cls-4" points="113.8 93.28 133.79 71.38 97.39 38.62 113.8 93.28"/><polygon class="cls-2" points="157.57 49.21 157.57 10.59 133.79 32.76 133.79 32.76 157.57 49.21 157.57 49.21"/><polygon class="cls-3" points="196.72 34.7 196.72 34.7 157.57 10.59 157.57 49.21 196.72 34.7"/><polygon class="cls-4" points="133.79 32.76 133.79 71.38 133.79 71.38 157.57 49.21 133.79 32.76"/><polygon class="cls-5" points="196.72 34.7 157.57 49.21 157.57 49.21 196.72 73.32 196.72 73.32 196.72 34.7"/><polygon class="cls-6" points="157.57 49.21 133.79 71.38 177.07 73.12 157.57 49.21 157.57 49.21"/><polygon class="cls-4" points="177.07 73.12 196.72 73.32 157.57 49.21 177.07 73.12"/><polygon class="cls-2" points="70.94 113.94 77.92 79.31 35.52 73.59 35.52 73.59 70.94 113.94 70.94 113.94"/><polygon class="cls-3" points="113.8 93.28 113.8 93.28 77.92 79.31 70.94 113.94 113.8 93.28"/><polygon class="cls-4" points="35.52 73.59 35.52 112.21 35.52 112.21 70.94 113.94 35.52 73.59"/><polygon class="cls-5" points="113.8 93.28 70.94 113.94 70.94 113.94 113.8 131.9 113.8 131.9 113.8 93.28"/><polygon class="cls-6" points="70.94 113.94 35.52 112.21 66.9 148.63 70.94 113.94 70.94 113.94"/><polygon class="cls-4" points="66.9 148.63 113.8 131.9 70.94 113.94 66.9 148.63"/><polygon class="cls-2" points="133.79 110 133.79 71.38 113.8 93.28 113.8 93.28 133.79 110 133.79 110"/><polygon class="cls-3" points="177.07 73.12 177.07 73.12 133.79 71.38 133.79 110 177.07 73.12"/><polygon class="cls-4" points="113.8 93.28 113.8 131.9 113.8 131.9 133.79 110 113.8 93.28"/><polygon class="cls-5" points="177.07 73.12 133.79 110 133.79 110 160.2 104.25 160.2 104.25 177.07 73.12"/><polygon class="cls-6" points="133.79 110 113.8 131.9 133.79 148.63 133.79 110 133.79 110"/><polygon class="cls-4" points="133.79 148.63 160.2 104.25 133.79 110 133.79 148.63"/><polygon class="cls-2" points="21.93 164.24 35.52 112.21 13.54 146.19 13.54 146.2 21.93 164.24 21.93 164.24"/><polygon class="cls-3" points="66.9 148.63 66.9 148.63 35.52 112.21 21.93 164.24 66.9 148.63"/><polygon class="cls-4" points="13.54 146.2 0 187.25 0 187.25 21.93 164.24 13.54 146.2"/><polygon class="cls-5" points="66.9 148.63 21.93 164.24 21.93 164.24 66.9 187.25 66.9 187.25 66.9 148.63"/><polygon class="cls-6" points="21.93 164.24 0 187.25 33.45 206.56 21.93 164.24 21.93 164.24"/><polygon class="cls-4" points="33.45 206.56 66.9 187.25 21.93 164.24 33.45 206.56"/><polygon class="cls-2" points="96.45 164.71 113.8 131.9 66.9 148.63 66.9 148.63 96.45 164.71 96.45 164.71"/><polygon class="cls-3" points="133.79 148.63 133.79 148.63 113.8 131.9 96.45 164.71 133.79 148.63"/><polygon class="cls-4" points="66.9 148.63 66.9 187.25 66.9 187.25 96.45 164.71 66.9 148.63"/><polygon class="cls-5" points="133.79 148.63 96.45 164.71 96.45 164.71 133.79 187.25 133.79 187.25 133.79 148.63"/><polygon class="cls-6" points="96.45 164.71 66.9 187.25 100.35 206.56 96.45 164.71 96.45 164.71"/><polygon class="cls-4" points="100.35 206.56 133.79 187.25 96.45 164.71 100.35 206.56"/><polygon class="cls-2" points="177.54 150.18 160.2 104.25 133.79 148.63 133.79 148.63 177.54 150.18 177.54 150.18"/><polygon class="cls-3" points="200.69 148.63 200.69 148.63 160.2 104.25 177.54 150.18 200.69 148.63"/><polygon class="cls-4" points="133.79 148.63 133.79 187.25 133.79 187.25 177.54 150.18 133.79 148.63"/><polygon class="cls-5" points="200.69 148.63 177.54 150.18 177.54 150.18 200.69 187.25 200.69 187.25 200.69 148.63"/><polygon class="cls-6" points="177.54 150.18 133.79 187.25 167.24 206.56 177.54 150.18 177.54 150.18"/><polygon class="cls-4" points="167.24 206.56 200.69 187.25 177.54 150.18 167.24 206.56"/><polygon class="cls-2" points="82.86 232.65 66.9 187.25 33.45 206.56 33.45 206.56 82.86 232.65 82.86 232.65"/><polygon class="cls-3" points="100.35 206.56 100.35 206.56 66.9 187.25 82.86 232.65 100.35 206.56"/><polygon class="cls-4" points="33.45 206.56 33.45 245.19 33.45 245.19 82.86 232.65 33.45 206.56"/><polygon class="cls-5" points="100.35 206.56 82.86 232.65 82.86 232.65 100.35 245.19 100.35 245.19 100.35 206.56"/><polygon class="cls-6" points="82.86 232.65 33.45 245.19 82.86 271.27 82.86 232.65 82.86 232.65"/><polygon class="cls-4" points="82.86 271.27 100.35 245.19 82.86 232.65 82.86 271.27"/><polygon class="cls-2" points="126.45 198.46 133.79 187.25 100.35 206.56 100.35 206.56 126.45 198.46 126.45 198.46"/><polygon class="cls-3" points="167.24 206.56 167.24 206.56 133.79 187.25 126.45 198.46 167.24 206.56"/><polygon class="cls-4" points="100.35 206.56 100.35 245.19 100.35 245.19 126.45 198.46 100.35 206.56"/><polygon class="cls-5" points="167.24 206.56 126.45 198.46 126.45 198.46 167.24 245.19 167.24 245.19 167.24 206.56"/><polygon class="cls-6" points="126.45 198.46 100.35 245.19 126.45 237.08 126.45 198.46 126.45 198.46"/><polygon class="cls-4" points="126.45 237.08 167.24 245.19 126.45 198.46 126.45 237.08"/></g></g></svg>